<mxfile host="app.diagrams.net" modified="2023-10-11T17:01:54.625Z" agent="Mozilla/5.0 (Macintosh; Intel Mac OS X 10_15_7) AppleWebKit/537.36 (KHTML, like Gecko) Chrome/117.0.0.0 Safari/537.36 Edg/117.0.2045.40" etag="NCsqUA-Z0dYSHEXq_mHv" version="21.6.9" type="github">
  <diagram id="6I0OCvxSQrVGMHxT2VVA" name="Page-1">
    <mxGraphModel dx="2604" dy="1063" grid="1" gridSize="10" guides="1" tooltips="1" connect="1" arrows="1" fold="1" page="1" pageScale="1" pageWidth="850" pageHeight="1100" math="0" shadow="0">
      <root>
        <mxCell id="0" />
        <mxCell id="1" parent="0" />
        <mxCell id="BALfqEKntHM_j133m_wY-3" value="&lt;div style=&quot;&quot;&gt;&lt;span style=&quot;background-color: initial;&quot;&gt;排除人群包上报&lt;/span&gt;&lt;/div&gt;" style="html=1;outlineConnect=0;whiteSpace=wrap;fillColor=#ffff99;shape=mxgraph.archimate.business;busType=function;align=center;verticalAlign=top;" vertex="1" parent="1">
          <mxGeometry x="130" y="210" width="740" height="320" as="geometry" />
        </mxCell>
        <mxCell id="BALfqEKntHM_j133m_wY-4" value="存量手机号信息查询" style="html=1;outlineConnect=0;whiteSpace=wrap;fillColor=#ffff99;shape=mxgraph.archimate.business;busType=process" vertex="1" parent="1">
          <mxGeometry x="211" y="240" width="100" height="75" as="geometry" />
        </mxCell>
        <mxCell id="BALfqEKntHM_j133m_wY-11" style="edgeStyle=orthogonalEdgeStyle;rounded=0;orthogonalLoop=1;jettySize=auto;html=1;" edge="1" parent="1" source="BALfqEKntHM_j133m_wY-5" target="BALfqEKntHM_j133m_wY-4">
          <mxGeometry relative="1" as="geometry" />
        </mxCell>
        <mxCell id="BALfqEKntHM_j133m_wY-5" value="用户信息批量查询服务" style="html=1;outlineConnect=0;whiteSpace=wrap;fillColor=#ffff99;shape=mxgraph.archimate.business;busType=service" vertex="1" parent="1">
          <mxGeometry x="211" y="80" width="100" height="75" as="geometry" />
        </mxCell>
        <mxCell id="BALfqEKntHM_j133m_wY-6" value="&lt;table cellpadding=&quot;0&quot; cellspacing=&quot;0&quot; style=&quot;font-size:1em;width:100%;height:100%;&quot;&gt;&lt;tbody&gt;&lt;tr style=&quot;height:20px;&quot;&gt;&lt;td align=&quot;center&quot;&gt;&lt;/td&gt;&lt;/tr&gt;&lt;tr&gt;&lt;td align=&quot;left&quot; valign=&quot;top&quot; style=&quot;padding:4px;&quot;&gt;用户基础信息&lt;/td&gt;&lt;/tr&gt;&lt;/tbody&gt;&lt;/table&gt;" style="html=1;outlineConnect=0;whiteSpace=wrap;fillColor=#ffff99;shape=mxgraph.archimate.businessObject;overflow=fill" vertex="1" parent="1">
          <mxGeometry x="-63" y="240" width="100" height="75" as="geometry" />
        </mxCell>
        <mxCell id="BALfqEKntHM_j133m_wY-16" value="" style="edgeStyle=elbowEdgeStyle;html=1;endArrow=open;elbow=vertical;endFill=1;dashed=1;rounded=0;exitX=0;exitY=0.5;exitDx=0;exitDy=0;exitPerimeter=0;" edge="1" parent="1" source="BALfqEKntHM_j133m_wY-5" target="BALfqEKntHM_j133m_wY-6">
          <mxGeometry width="100" height="75" relative="1" as="geometry">
            <mxPoint x="260" y="160" as="sourcePoint" />
            <mxPoint x="680" y="470" as="targetPoint" />
            <Array as="points">
              <mxPoint x="120" y="120" />
            </Array>
          </mxGeometry>
        </mxCell>
        <mxCell id="BALfqEKntHM_j133m_wY-17" value="" style="edgeStyle=elbowEdgeStyle;html=1;endArrow=open;elbow=vertical;endFill=1;dashed=1;rounded=0;exitX=0;exitY=0.5;exitDx=0;exitDy=0;exitPerimeter=0;entryX=1;entryY=0.5;entryDx=0;entryDy=0;entryPerimeter=0;" edge="1" parent="1" source="BALfqEKntHM_j133m_wY-4" target="BALfqEKntHM_j133m_wY-6">
          <mxGeometry width="100" height="75" relative="1" as="geometry">
            <mxPoint x="50" y="430" as="sourcePoint" />
            <mxPoint x="-150" y="552" as="targetPoint" />
          </mxGeometry>
        </mxCell>
        <mxCell id="BALfqEKntHM_j133m_wY-18" value="存量设备信息查询" style="html=1;outlineConnect=0;whiteSpace=wrap;fillColor=#ffff99;shape=mxgraph.archimate.business;busType=process" vertex="1" parent="1">
          <mxGeometry x="211" y="400" width="100" height="75" as="geometry" />
        </mxCell>
        <mxCell id="BALfqEKntHM_j133m_wY-21" value="" style="edgeStyle=elbowEdgeStyle;html=1;endArrow=open;elbow=vertical;endFill=1;dashed=1;rounded=0;exitX=0.5;exitY=0;exitDx=0;exitDy=0;exitPerimeter=0;" edge="1" parent="1" source="BALfqEKntHM_j133m_wY-18">
          <mxGeometry width="100" height="75" relative="1" as="geometry">
            <mxPoint x="150" y="410" as="sourcePoint" />
            <mxPoint x="-20" y="320" as="targetPoint" />
          </mxGeometry>
        </mxCell>
        <mxCell id="BALfqEKntHM_j133m_wY-23" style="edgeStyle=orthogonalEdgeStyle;rounded=0;orthogonalLoop=1;jettySize=auto;html=1;entryX=0.5;entryY=1;entryDx=0;entryDy=0;entryPerimeter=0;" edge="1" parent="1" source="BALfqEKntHM_j133m_wY-22" target="BALfqEKntHM_j133m_wY-18">
          <mxGeometry relative="1" as="geometry" />
        </mxCell>
        <mxCell id="BALfqEKntHM_j133m_wY-22" value="风控设备信息批量查询服务" style="html=1;outlineConnect=0;whiteSpace=wrap;fillColor=#ffff99;shape=mxgraph.archimate.business;busType=service" vertex="1" parent="1">
          <mxGeometry x="211" y="580" width="100" height="75" as="geometry" />
        </mxCell>
        <mxCell id="BALfqEKntHM_j133m_wY-30" style="edgeStyle=orthogonalEdgeStyle;rounded=0;orthogonalLoop=1;jettySize=auto;html=1;entryX=0;entryY=0.5;entryDx=0;entryDy=0;entryPerimeter=0;" edge="1" parent="1" source="BALfqEKntHM_j133m_wY-24" target="BALfqEKntHM_j133m_wY-29">
          <mxGeometry relative="1" as="geometry" />
        </mxCell>
        <mxCell id="BALfqEKntHM_j133m_wY-24" value="数据格式化处理" style="html=1;outlineConnect=0;whiteSpace=wrap;fillColor=#ffff99;shape=mxgraph.archimate.business;busType=process" vertex="1" parent="1">
          <mxGeometry x="482" y="315" width="100" height="75" as="geometry" />
        </mxCell>
        <mxCell id="BALfqEKntHM_j133m_wY-26" value="" style="endArrow=block;html=1;endFill=1;startArrow=none;startFill=0;edgeStyle=elbowEdgeStyle;elbow=vertical;dashed=0;rounded=0;entryX=0;entryY=0.5;entryDx=0;entryDy=0;entryPerimeter=0;" edge="1" parent="1" source="BALfqEKntHM_j133m_wY-4" target="BALfqEKntHM_j133m_wY-24">
          <mxGeometry width="100" height="75" relative="1" as="geometry">
            <mxPoint x="20" y="605" as="sourcePoint" />
            <mxPoint x="120" y="530" as="targetPoint" />
          </mxGeometry>
        </mxCell>
        <mxCell id="BALfqEKntHM_j133m_wY-28" value="" style="edgeStyle=elbowEdgeStyle;html=1;endArrow=block;dashed=0;elbow=vertical;endFill=1;rounded=0;exitX=1;exitY=0.5;exitDx=0;exitDy=0;exitPerimeter=0;" edge="1" parent="1" source="BALfqEKntHM_j133m_wY-18" target="BALfqEKntHM_j133m_wY-24">
          <mxGeometry width="160" relative="1" as="geometry">
            <mxPoint x="370" y="630" as="sourcePoint" />
            <mxPoint x="530" y="630" as="targetPoint" />
            <Array as="points">
              <mxPoint x="380" y="438" />
            </Array>
          </mxGeometry>
        </mxCell>
        <mxCell id="BALfqEKntHM_j133m_wY-34" style="edgeStyle=orthogonalEdgeStyle;rounded=0;orthogonalLoop=1;jettySize=auto;html=1;entryX=0;entryY=0.5;entryDx=0;entryDy=0;entryPerimeter=0;" edge="1" parent="1" source="BALfqEKntHM_j133m_wY-29" target="BALfqEKntHM_j133m_wY-32">
          <mxGeometry relative="1" as="geometry" />
        </mxCell>
        <mxCell id="BALfqEKntHM_j133m_wY-29" value="生成人群包" style="html=1;outlineConnect=0;whiteSpace=wrap;fillColor=#ffff99;shape=mxgraph.archimate.business;busType=process" vertex="1" parent="1">
          <mxGeometry x="682" y="315" width="100" height="75" as="geometry" />
        </mxCell>
        <mxCell id="BALfqEKntHM_j133m_wY-31" value="" style="edgeStyle=elbowEdgeStyle;html=1;endArrow=open;elbow=vertical;endFill=1;dashed=1;rounded=0;exitX=0;exitY=0.5;exitDx=0;exitDy=0;exitPerimeter=0;" edge="1" parent="1" source="BALfqEKntHM_j133m_wY-22">
          <mxGeometry width="100" height="75" relative="1" as="geometry">
            <mxPoint x="110" y="570" as="sourcePoint" />
            <mxPoint x="-20" y="320" as="targetPoint" />
            <Array as="points">
              <mxPoint x="70" y="618" />
            </Array>
          </mxGeometry>
        </mxCell>
        <mxCell id="BALfqEKntHM_j133m_wY-32" value="人群包上传服务" style="html=1;outlineConnect=0;whiteSpace=wrap;fillColor=#ffff99;shape=mxgraph.archimate.business;busType=service" vertex="1" parent="1">
          <mxGeometry x="930" y="315" width="100" height="75" as="geometry" />
        </mxCell>
        <mxCell id="BALfqEKntHM_j133m_wY-37" style="edgeStyle=orthogonalEdgeStyle;rounded=0;orthogonalLoop=1;jettySize=auto;html=1;entryX=0.5;entryY=0;entryDx=0;entryDy=0;entryPerimeter=0;" edge="1" parent="1" source="BALfqEKntHM_j133m_wY-35" target="BALfqEKntHM_j133m_wY-36">
          <mxGeometry relative="1" as="geometry" />
        </mxCell>
        <mxCell id="BALfqEKntHM_j133m_wY-35" value="运营人员" style="html=1;outlineConnect=0;whiteSpace=wrap;fillColor=#ffff99;shape=mxgraph.archimate.application;appType=actor" vertex="1" parent="1">
          <mxGeometry x="-60" y="742.5" width="100" height="75" as="geometry" />
        </mxCell>
        <mxCell id="BALfqEKntHM_j133m_wY-36" value="创建广告计划" style="html=1;outlineConnect=0;whiteSpace=wrap;fillColor=#ffff99;shape=mxgraph.archimate.business;busType=process" vertex="1" parent="1">
          <mxGeometry x="-60" y="872.5" width="100" height="75" as="geometry" />
        </mxCell>
        <mxCell id="BALfqEKntHM_j133m_wY-38" value="广告行为数据接收" style="html=1;outlineConnect=0;whiteSpace=wrap;fillColor=#ffff99;shape=mxgraph.archimate.business;busType=function;verticalAlign=top;" vertex="1" parent="1">
          <mxGeometry x="240" y="730" width="630" height="217.5" as="geometry" />
        </mxCell>
        <mxCell id="BALfqEKntHM_j133m_wY-41" style="edgeStyle=orthogonalEdgeStyle;rounded=0;orthogonalLoop=1;jettySize=auto;html=1;entryX=0;entryY=0.5;entryDx=0;entryDy=0;entryPerimeter=0;" edge="1" parent="1" source="BALfqEKntHM_j133m_wY-39" target="BALfqEKntHM_j133m_wY-40">
          <mxGeometry relative="1" as="geometry" />
        </mxCell>
        <mxCell id="BALfqEKntHM_j133m_wY-39" value="用户行为请求" style="html=1;outlineConnect=0;whiteSpace=wrap;fillColor=#ffff99;shape=mxgraph.archimate.business;busType=event" vertex="1" parent="1">
          <mxGeometry x="90" y="801.25" width="100" height="75" as="geometry" />
        </mxCell>
        <mxCell id="BALfqEKntHM_j133m_wY-43" style="edgeStyle=orthogonalEdgeStyle;rounded=0;orthogonalLoop=1;jettySize=auto;html=1;entryX=0;entryY=0.5;entryDx=0;entryDy=0;entryPerimeter=0;" edge="1" parent="1" source="BALfqEKntHM_j133m_wY-40" target="BALfqEKntHM_j133m_wY-42">
          <mxGeometry relative="1" as="geometry" />
        </mxCell>
        <mxCell id="BALfqEKntHM_j133m_wY-40" value="数据接收服务" style="html=1;outlineConnect=0;whiteSpace=wrap;fillColor=#ffff99;shape=mxgraph.archimate.business;busType=service" vertex="1" parent="1">
          <mxGeometry x="311" y="801.25" width="100" height="75" as="geometry" />
        </mxCell>
        <mxCell id="BALfqEKntHM_j133m_wY-42" value="用户行为数据异步落库" style="html=1;outlineConnect=0;whiteSpace=wrap;fillColor=#ffff99;shape=mxgraph.archimate.business;busType=process" vertex="1" parent="1">
          <mxGeometry x="500" y="801.25" width="100" height="75" as="geometry" />
        </mxCell>
        <mxCell id="BALfqEKntHM_j133m_wY-44" value="用户行为数据查询服务" style="html=1;outlineConnect=0;whiteSpace=wrap;fillColor=#ffff99;shape=mxgraph.archimate.business;busType=service" vertex="1" parent="1">
          <mxGeometry x="682" y="797.5" width="100" height="75" as="geometry" />
        </mxCell>
        <mxCell id="BALfqEKntHM_j133m_wY-46" value="&lt;table cellpadding=&quot;0&quot; cellspacing=&quot;0&quot; style=&quot;font-size:1em;width:100%;height:100%;&quot;&gt;&lt;tbody&gt;&lt;tr style=&quot;height:20px;&quot;&gt;&lt;td align=&quot;center&quot;&gt;&lt;/td&gt;&lt;/tr&gt;&lt;tr&gt;&lt;td align=&quot;left&quot; valign=&quot;top&quot; style=&quot;padding:4px;&quot;&gt;用户行为数据&lt;/td&gt;&lt;/tr&gt;&lt;/tbody&gt;&lt;/table&gt;" style="html=1;outlineConnect=0;whiteSpace=wrap;fillColor=#ffff99;shape=mxgraph.archimate.businessObject;overflow=fill" vertex="1" parent="1">
          <mxGeometry x="930" y="797.5" width="100" height="75" as="geometry" />
        </mxCell>
        <mxCell id="BALfqEKntHM_j133m_wY-48" style="edgeStyle=orthogonalEdgeStyle;rounded=0;orthogonalLoop=1;jettySize=auto;html=1;entryX=0.5;entryY=0;entryDx=0;entryDy=0;entryPerimeter=0;" edge="1" parent="1" source="BALfqEKntHM_j133m_wY-47" target="BALfqEKntHM_j133m_wY-39">
          <mxGeometry relative="1" as="geometry" />
        </mxCell>
        <mxCell id="BALfqEKntHM_j133m_wY-47" value="&lt;table cellpadding=&quot;0&quot; cellspacing=&quot;0&quot; style=&quot;font-size:1em;width:100%;height:100%;&quot;&gt;&lt;tbody&gt;&lt;tr style=&quot;height:20px;&quot;&gt;&lt;td align=&quot;left&quot;&gt;&lt;/td&gt;&lt;/tr&gt;&lt;tr&gt;&lt;td align=&quot;left&quot; valign=&quot;top&quot; style=&quot;padding:4px;&quot;&gt;抖音/其它广告平台&lt;/td&gt;&lt;/tr&gt;&lt;/tbody&gt;&lt;/table&gt;" style="html=1;outlineConnect=0;whiteSpace=wrap;fillColor=#ffff99;shape=mxgraph.archimate.product;overflow=fill" vertex="1" parent="1">
          <mxGeometry x="90" y="668" width="100" height="75" as="geometry" />
        </mxCell>
        <mxCell id="BALfqEKntHM_j133m_wY-49" value="" style="edgeStyle=elbowEdgeStyle;html=1;endArrow=open;elbow=vertical;endFill=1;dashed=1;rounded=0;exitX=1;exitY=0.5;exitDx=0;exitDy=0;exitPerimeter=0;entryX=0;entryY=0.5;entryDx=0;entryDy=0;entryPerimeter=0;" edge="1" parent="1" source="BALfqEKntHM_j133m_wY-44" target="BALfqEKntHM_j133m_wY-46">
          <mxGeometry width="100" height="75" relative="1" as="geometry">
            <mxPoint x="744" y="610" as="sourcePoint" />
            <mxPoint x="910" y="840" as="targetPoint" />
          </mxGeometry>
        </mxCell>
      </root>
    </mxGraphModel>
  </diagram>
</mxfile>
